<svg width="43" height="43" viewBox="0 0 43 43" fill="none" xmlns="http://www.w3.org/2000/svg">
<g clip-path="url(#clip0_2_1099)">
<path d="M21.5012 0C9.62479 0 0 9.62479 0 21.4988C0 33.3728 9.62479 43 21.5012 43C33.3776 43 43.0024 33.3752 43.0024 21.4988C43.0024 9.62236 33.3752 0 21.5012 0ZM9.25723 16.4308C9.25723 10.9514 13.6972 6.51146 19.1741 6.51146V9.93881H20.0577C21.1288 9.93881 21.9978 10.8078 21.9978 11.8789C21.9978 12.9499 21.1288 13.8213 20.0577 13.8213H19.1741V17.2463H9.29131C9.2694 16.9785 9.25723 16.7059 9.25723 16.4308ZM16.0778 25.7367C14.8802 24.2397 14.1061 22.3873 13.9406 20.3645H22.0684V22.139C20.4521 22.5333 19.2472 23.9938 19.2472 25.7318C19.2472 27.4699 20.4521 28.9304 22.0684 29.3247V30.868H18.3538C18.0617 28.9985 17.273 27.2313 16.0778 25.7367ZM29.1738 36.4885H18.478V32.6352L29.1738 32.6255V36.4885ZM31.5739 25.7367C30.3787 27.2313 29.5876 28.9985 29.2979 30.868H23.8259V27.6743H22.9447C21.8712 27.6743 21.0022 26.8053 21.0022 25.7318C21.0022 24.6584 21.8712 23.7918 22.9447 23.7918H23.8259V20.3645H33.7111C33.5456 22.3873 32.7715 24.2397 31.5739 25.7367ZM33.7111 18.607H23.8259V15.1894H24.707C25.7805 15.1894 26.6495 14.3204 26.6495 13.2493C26.6495 12.1783 25.7805 11.3068 24.707 11.3068H23.8259V7.87948C29.3077 7.87948 33.7306 12.2951 33.7428 17.7769C33.7452 18.0568 33.733 18.3343 33.7111 18.607Z" fill="#39FFFF"/>
</g>
<defs>
<clipPath id="clip0_2_1099">
<rect width="43.0024" height="43" fill="white"/>
</clipPath>
</defs>
</svg>
