<svg width="43" height="43" viewBox="0 0 43 43" fill="none" xmlns="http://www.w3.org/2000/svg">
<g clip-path="url(#clip0_2_1094)">
<path d="M21.5 0C9.62668 0 0 9.62668 0 21.5C0 33.3733 9.62668 43 21.5 43C33.3733 43 43 33.3733 43 21.5C43 9.62668 33.3733 0 21.5 0ZM8.80884 19.1073L11.5837 17.9755C11.8368 16.8972 12.2652 15.8822 12.8323 14.967L11.6689 12.2043L13.3824 10.4908L16.1475 11.6518C17.0627 11.0847 18.0777 10.6587 19.156 10.4031L20.2854 7.62833H22.7122L23.8416 10.4031C24.9223 10.6587 25.9348 11.0847 26.8525 11.6518L29.6151 10.4883L31.3287 12.2019L30.1652 14.967C30.7348 15.8822 31.1608 16.8972 31.4163 17.9779L34.1887 19.1073V20.6919H27.2468C27.4586 17.3645 24.8225 14.5605 21.5 14.5605C18.1775 14.5605 15.5414 17.3645 15.7532 20.6919H8.80884V19.1073ZM32.2439 24.842C32.2439 26.1734 31.1681 27.2517 29.8366 27.2517C28.5052 27.2517 27.4294 26.1734 27.4294 24.842C27.4294 23.5105 28.5076 22.4347 29.8366 22.4347C31.1656 22.4347 32.2439 23.513 32.2439 24.842ZM24.9904 22.8363C24.9904 24.7641 23.4278 26.3267 21.5 26.3267C19.5722 26.3267 18.0071 24.7641 18.0071 22.8363C18.0071 20.9085 19.5698 19.3434 21.5 19.3434C23.4302 19.3434 24.9904 20.9061 24.9904 22.8363ZM15.5682 24.842C15.5682 26.1734 14.4899 27.2517 13.1609 27.2517C11.8319 27.2517 10.7537 26.1734 10.7537 24.842C10.7537 23.5105 11.8319 22.4347 13.1609 22.4347C14.4899 22.4347 15.5682 23.513 15.5682 24.842ZM8.2271 32.8111V31.4699C8.34637 29.8488 9.2421 28.4444 10.5468 27.6314C11.7492 28.7583 13.5479 28.992 14.9986 28.1936C14.008 29.5421 13.4603 31.1389 13.4506 32.8111H8.2271ZM28.6561 34.3981H14.3414V32.4508C14.5118 30.0995 15.8165 28.0622 17.7077 26.8817C19.84 28.8801 23.1576 28.8801 25.2898 26.8817C27.1835 28.0622 28.4857 30.0995 28.6561 32.4508V34.3981ZM34.7705 32.8111H29.5494C29.5397 31.1389 28.9896 29.5421 27.9989 28.1936C29.4496 28.992 31.2484 28.7583 32.4508 27.6314C33.7555 28.4444 34.6536 29.8488 34.7705 31.4699V32.8111Z" fill="#39FFFF"/>
</g>
<defs>
<clipPath id="clip0_2_1094">
<rect width="43" height="43" fill="white"/>
</clipPath>
</defs>
</svg>
